Coordinates
version=1
nRows=9
nColumns=40
inDegrees=yes

Units are S.I. units (second, meters, Newtons, ...)
If the header above contains a line with 'inDegrees', this indicates whether rotational values are in degrees (yes) or radians (no).

endheader
time	pelvis_tilt	pelvis_list	pelvis_rotation	pelvis_tx	pelvis_ty	pelvis_tz	hip_flexion_r	hip_adduction_r	hip_rotation_r	knee_angle_r	knee_angle_r_beta	ankle_angle_r	subtalar_angle_r	mtp_angle_r	hip_flexion_l	hip_adduction_l	hip_rotation_l	knee_angle_l	knee_angle_l_beta	ankle_angle_l	subtalar_angle_l	mtp_angle_l	lumbar_extension	lumbar_bending	lumbar_rotation	arm_flex_r	arm_add_r	arm_rot_r	elbow_flex_r	pro_sup_r	wrist_flex_r	wrist_dev_r	arm_flex_l	arm_add_l	arm_rot_l	elbow_flex_l	pro_sup_l	wrist_flex_l	wrist_dev_l
     10.50000000000000000000	     15.74392961929914314112	     13.39240596388931869853	   -176.05512342549607751607	      0.28310243840901017087	      0.91307612276062544154	     -0.91938783760326903138	     29.04709890569732166909	    -15.90800219137148729942	    -33.28146938618915129382	     15.94842793430684757539	      0.27835257797069240526	     -3.98142555469319603390	      0.00000000000000000000	      0.00000000000000000000	     45.69831852167735775083	    -35.74552193558808710350	      1.87009726412796672967	     24.24518526124711925718	      0.42315831056476377325	     -3.96817129057242556911	      0.00000000000000000000	      0.00000000000000000000	     -1.27395449700391627523	     18.30290131671055675611	     -3.53068528579602070039	     12.25624698315510840985	    -13.30524862535441599221	     14.36572990417608153280	     21.56460066554101118186	     87.09089309424041402963	      0.00000000000000000000	      0.00000000000000000000	     14.21811961526251977261	     -5.36695332528360413704	     29.17397459229454526053	     20.10330112023675397381	     86.64139774148014794264	      0.00000000000000000000	      0.00000000000000000000
     10.50500000000000078160	     15.32981265027832762371	     13.59016236678267297577	   -175.61693818403651334847	      0.28207842923948317493	      0.91373939338414666977	     -0.91851425132319297617	     28.20794617917192681489	    -15.71942313852951400577	    -33.73407725851112104465	     15.48516691973064496324	      0.27026714797020823244	     -3.93879225335875871039	      0.00000000000000000000	      0.00000000000000000000	     45.45010357220370167397	    -35.70416519327644522264	      2.25049201170466961486	     24.15773311726664474008	      0.42163198271437635212	     -3.88196122406213062206	      0.00000000000000000000	      0.00000000000000000000	     -1.25356940869259880778	     18.51775969060251014753	     -3.82581149921925334212	     12.10210955150869516217	    -13.27385809438825958750	     13.98876103727336683846	     21.42048964767345964333	     87.03651113064455557833	      0.00000000000000000000	      0.00000000000000000000	     13.93479250266758029397	     -5.14263465442645983927	     28.10079087740704295584	     20.19009567761543877396	     86.70837184852416612557	      0.00000000000000000000	      0.00000000000000000000
     10.50999999999999978684	     15.09675146695350633763	     13.33329300264389161157	   -175.46278839865573218049	      0.28137175093346344923	      0.91420951867590594109	     -0.91795579798701221197	     27.86544672787488963195	    -16.00793264033628204857	    -33.83551073207371473472	     15.44368939751990232878	      0.26954322864206170518	     -3.83098836304472678549	      0.00000000000000000000	      0.00000000000000000000	     44.95377175257693380672	    -35.44467307299991887248	      1.95308578611350514009	     24.03767227224310332190	      0.41953652566598892415	     -3.81942749202004083742	      0.00000000000000000000	      0.00000000000000000000	     -1.19181762449812134186	     18.22733035790451694425	     -3.88232348790728654109	     12.01798222444143604548	    -13.07490979253069696142	     13.25624675197264323856	     21.09529868388760576181	     87.00179757861977236644	      0.00000000000000000000	      0.00000000000000000000	     13.67556752915913520496	     -4.51424414673219143168	     25.31157006357784311490	     19.87189546618634494735	     86.76493870727168200574	      0.00000000000000000000	      0.00000000000000000000
     10.51500000000000056843	     15.26180927019361632802	     13.14895744470324245867	   -175.13789519761880342230	      0.28160315545145175875	      0.91357246988623164174	     -0.91687946740735615236	     27.97467707690830351908	    -16.46248303360142983820	    -34.21036110963247267591	     15.57174190237803301784	      0.27177816646726210559	     -3.60315705425606935819	      0.00000000000000000000	      0.00000000000000000000	     45.36575848987509829158	    -34.97407647785872342183	      2.23041370305615949121	     24.29273355658421351677	      0.42398818487210676587	     -3.69190548222191550209	      0.00000000000000000000	      0.00000000000000000000	     -0.61358952424857748920	     17.98488066070220980919	     -4.24458011655701827891	     11.86398622672549585388	    -13.17528884085249885061	     13.62367967847446514895	     21.10824165599043311659	     86.98829975495401356511	      0.00000000000000000000	      0.00000000000000000000	     13.52032191165230479157	     -4.44390460927737596108	     25.07278896868039552714	     19.92094650559275592627	     86.61618347744303036961	      0.00000000000000000000	      0.00000000000000000000
     10.51999999999999957367	     14.65571852513806483387	     12.99989061935135659098	   -174.82070198763466351011	      0.28048012558599033639	      0.91483934400870192682	     -0.91599585618853063274	     26.96425697769867468878	    -16.48690238706640087685	    -34.30660150418474074741	     15.02833049440237722649	      0.26229384820518875099	     -3.70016588853446481977	      0.00000000000000000000	      0.00000000000000000000	     44.51978594619115625619	    -34.78470909032198221666	      2.07552007665302129524	     24.08959444989428178019	      0.42044273862080738802	     -3.61151020790097954105	      0.00000000000000000000	      0.00000000000000000000	     -0.94942286649262308540	     17.85817483431486962786	     -4.36461860142885704761	     11.85754129219508357096	    -13.04867124060103122929	     13.15154572593309900697	     20.82195025214453565354	     86.96708068317926176860	      0.00000000000000000000	      0.00000000000000000000	     13.40648132492376909397	     -4.12144749882435146304	     23.76754574692734323094	     19.79435585105165529285	     86.75687419150249013455	      0.00000000000000000000	      0.00000000000000000000
     10.52500000000000035527	     14.77914490058538987682	     12.77997446156971328435	   -174.48139776279816715032	      0.28084978963466206148	      0.91425874449556510104	     -0.91487266842108860843	     27.08715473261477413303	    -17.01816704395343293754	    -34.65047178239200320604	     15.29248618952784966041	      0.26690423482302255698	     -3.52351041966645839310	      0.00000000000000000000	      0.00000000000000000000	     44.90328232426310961500	    -34.28199123654415103601	      2.34380987527079387434	     24.36539106076536853607	      0.42525629754634947099	     -3.56385091945922072298	      0.00000000000000000000	      0.00000000000000000000	     -0.46985312408576873633	     17.58751755575812580901	     -4.73321329755636277525	     11.76267588653938567234	    -13.15432608673739878213	     13.54429093935167038865	     20.82277318992167991496	     86.98527028369822744480	      0.00000000000000000000	      0.00000000000000000000	     13.37799135385621518424	     -4.02282386966664518013	     23.67579766653008022104	     19.69823406496719542247	     86.63174239749770322305	      0.00000000000000000000	      0.00000000000000000000
     10.52999999999999936051	     14.69957573332021283363	     12.48648920754085978047	   -174.21709657917924118919	      0.28083618157126949422	      0.91420301800365522116	     -0.91387660071705800746	     26.91331540503264818653	    -17.45449543477913323386	    -34.73085170422586287486	     15.27582351382468495160	      0.26661341626981027719	     -3.44878982781048248896	      0.00000000000000000000	      0.00000000000000000000	     44.86350657364873484312	    -33.84265417374945883466	      2.32147363422759189788	     24.53855802414585696170	      0.42827863121301940064	     -3.49925659578311076814	      0.00000000000000000000	      0.00000000000000000000	     -0.27010546222568837527	     17.25774959876543590553	     -4.96473538858610297098	     11.67540404258575570395	    -13.22540988025145303197	     13.82343951927310676808	     20.79627040096362478039	     87.04759160758456459916	      0.00000000000000000000	      0.00000000000000000000	     13.36431766056785264141	     -3.95917234941780415980	     23.67962896001678885227	     19.64268312803191562921	     86.69324136390737578495	      0.00000000000000000000	      0.00000000000000000000
     10.53500000000000014211	     13.15900770169219313743	     11.62342280383887072048	   -174.78860085766550014341	      0.27804106137120926379	      0.91825255315084264307	     -0.91468358897932733331	     25.17000098472404445715	    -17.50823290020028721869	    -33.75576016846707716468	     14.55024798404212482694	      0.25394973430320244567	     -3.64927189609911817314	      0.00000000000000000000	      0.00000000000000000000	     41.26138709001196502868	    -33.94447278833772685402	      0.22072882890748277140	     23.37095478563875161626	      0.40790011034412176905	     -3.25801070301537043505	      0.00000000000000000000	      0.00000000000000000000	     -2.08110713262063740103	     16.43225792854860145553	     -3.88530666470418051262	     11.81818936748864956598	    -12.68307378543310193209	     12.24295996152021714920	     20.18236005780320496683	     86.95620949333154214855	      0.00000000000000000000	      0.00000000000000000000	     13.47725109520342279268	     -3.71474607032521619843	     22.67886431391781343336	     19.34445277813411578904	     86.70799240187783141209	      0.00000000000000000000	      0.00000000000000000000
     10.53999999999999914735	     12.58084561691064706679	     11.31867644417078722086	   -174.67671201153487459123	      0.27724529542995274278	      0.91941451245097327583	     -0.91407322964575654645	     24.39078964880076938471	    -17.70395679241666186954	    -33.78819440585040467795	     14.26387278421357684977	      0.24895154417013756754	     -3.70834340524114791648	      0.00000000000000000000	      0.00000000000000000000	     40.28841454697861479417	    -33.72516127393195972672	     -0.13601738688233108721	     23.18689646453847075236	      0.40468768662522897062	     -3.13617821399142560068	      0.00000000000000000000	      0.00000000000000000000	     -2.51476085216934786004	     16.14234318622198927073	     -3.78575419023227244253	     11.74352190806827422875	    -12.62539594267801490446	     11.82212620748162024142	     20.09099044474709572228	     86.94309407883793028304	      0.00000000000000000000	      0.00000000000000000000	     13.55667062535987810179	     -3.82948761602268827886	     23.58922993196649287029	     19.38414962818023212776	     86.71804941887631912323	      0.00000000000000000000	      0.00000000000000000000
